<?xml version="1.0" encoding="UTF-8"?>
<svg xmlns="http://www.w3.org/2000/svg" xmlns:xlink="http://www.w3.org/1999/xlink" width="71px" height="60px" viewBox="0 0 71 60" version="1.1">
<g id="surface1">
<path style=" stroke:none;fill-rule:nonzero;fill:rgb(0%,0%,0%);fill-opacity:1;" d="M 29.746094 2.65625 C 33.988281 0.855469 38.65625 0.117188 43.25 0.433594 C 47.746094 0.773438 52.167969 2.140625 56.050781 4.441406 C 59.53125 6.5 62.589844 9.277344 64.972656 12.550781 C 67.757812 16.363281 69.617188 20.851562 70.316406 25.527344 C 70.855469 29.234375 70.746094 33.050781 69.863281 36.695312 C 70.4375 37.824219 70.726562 39.121094 70.53125 40.382812 C 70.308594 42.28125 69.097656 44.019531 67.40625 44.898438 C 67.019531 45.164062 66.449219 45.167969 66.1875 45.589844 C 63.109375 50.539062 58.558594 54.5625 53.253906 56.953125 C 52.148438 57.472656 50.992188 57.882812 49.835938 58.269531 L 49.597656 58.324219 C 44.019531 60.039062 37.933594 59.980469 32.363281 58.253906 C 28.195312 56.929688 24.308594 54.695312 21.105469 51.710938 C 18.035156 48.871094 15.570312 45.375 13.933594 41.519531 C 13.207031 39.824219 12.679688 38.054688 12.25 36.265625 C 11.480469 35.796875 10.554688 35.660156 9.667969 35.765625 C 7.84375 35.953125 6.113281 36.617188 4.347656 37.070312 C 5.605469 36.140625 6.980469 35.363281 8.402344 34.71875 C 6.140625 34.746094 3.921875 35.28125 1.726562 35.792969 C 1.140625 35.9375 0.550781 36.089844 -0.03125 36.257812 C 2.230469 33.832031 5.203125 32.191406 8.265625 31.015625 C 7.21875 30.882812 6.15625 30.757812 5.15625 30.398438 C 4.21875 30.082031 3.34375 29.597656 2.558594 28.996094 C 3.3125 28.972656 4.074219 29.019531 4.828125 28.933594 C 7.160156 28.949219 9.609375 28.820312 11.6875 27.648438 C 12.066406 22.578125 13.804688 17.617188 16.660156 13.417969 C 19.863281 8.664062 24.464844 4.867188 29.746094 2.65625 Z M 29.746094 2.65625 "/>
<path style=" stroke:none;fill-rule:nonzero;fill:rgb(97.647059%,98.823529%,98.039216%);fill-opacity:1;" d="M 37.863281 1.492188 C 41.601562 1.109375 45.421875 1.363281 49.035156 2.433594 C 56.675781 4.621094 63.273438 10.171875 66.757812 17.332031 C 68.480469 20.804688 69.484375 24.636719 69.660156 28.507812 C 69.636719 29.316406 69.78125 30.125 69.675781 30.933594 C 69.652344 32.53125 69.4375 34.113281 69.144531 35.679688 C 68.933594 35.480469 68.714844 35.289062 68.492188 35.105469 C 68.8125 33.035156 69.046875 30.9375 68.914062 28.84375 C 68.886719 28.296875 68.867188 27.75 68.8125 27.203125 C 68.378906 22.855469 66.914062 18.613281 64.546875 14.945312 C 62.164062 11.222656 58.886719 8.078125 55.074219 5.851562 C 51.125 3.542969 46.601562 2.210938 42.027344 2.101562 C 41.476562 2.019531 40.917969 2.078125 40.367188 2.058594 L 40.292969 2.113281 C 35.492188 2.183594 30.738281 3.660156 26.644531 6.160156 C 22.632812 8.621094 19.253906 12.113281 16.929688 16.21875 C 15.136719 19.351562 13.976562 22.847656 13.515625 26.429688 C 13.300781 26.691406 12.976562 26.839844 12.691406 27.015625 C 13.214844 21.675781 15.332031 16.519531 18.632812 12.308594 C 22.082031 7.894531 26.839844 4.519531 32.152344 2.761719 C 34.003906 2.144531 35.921875 1.722656 37.863281 1.492188 Z M 37.863281 1.492188 "/>
<path style=" stroke:none;fill-rule:nonzero;fill:rgb(98.823529%,99.215686%,98.823529%);fill-opacity:1;" d="M 39.121094 3.800781 C 39.6875 3.511719 40.480469 3.46875 40.949219 3.957031 C 41.273438 4.25 41.324219 4.707031 41.433594 5.105469 C 41.125 5.132812 40.816406 5.152344 40.507812 5.148438 C 40.402344 4.953125 40.398438 4.640625 40.152344 4.558594 C 39.957031 4.507812 39.753906 4.5625 39.558594 4.585938 C 39.542969 4.75 39.535156 4.917969 39.53125 5.082031 C 40.089844 5.289062 40.714844 5.40625 41.152344 5.84375 C 41.640625 6.304688 41.601562 7.09375 41.308594 7.65625 C 40.871094 8.476562 39.652344 8.589844 38.972656 8.023438 C 38.609375 7.679688 38.539062 7.164062 38.464844 6.695312 C 38.796875 6.695312 39.125 6.695312 39.457031 6.691406 C 39.53125 6.894531 39.558594 7.121094 39.695312 7.292969 C 39.832031 7.496094 40.09375 7.417969 40.296875 7.429688 C 40.441406 7.171875 40.523438 6.871094 40.429688 6.585938 C 40.109375 6.28125 39.632812 6.289062 39.257812 6.089844 C 38.386719 5.710938 38.296875 4.277344 39.121094 3.800781 Z M 39.121094 3.800781 "/>
<path style=" stroke:none;fill-rule:nonzero;fill:rgb(98.431373%,99.215686%,98.039216%);fill-opacity:1;" d="M 43.472656 3.847656 C 44.015625 3.738281 44.695312 3.753906 45.09375 4.199219 C 45.425781 4.539062 45.46875 5.039062 45.464844 5.488281 C 45.175781 5.480469 44.890625 5.453125 44.609375 5.417969 C 44.515625 5.214844 44.457031 4.996094 44.375 4.789062 C 44.1875 4.761719 43.960938 4.605469 43.792969 4.75 C 43.570312 4.851562 43.542969 5.199219 43.777344 5.296875 C 44.242188 5.546875 44.773438 5.738281 45.097656 6.179688 C 45.511719 6.691406 45.386719 7.460938 45.039062 7.972656 C 44.480469 8.769531 43.113281 8.726562 42.578125 7.929688 C 42.332031 7.5625 42.347656 7.09375 42.332031 6.671875 C 42.660156 6.710938 42.984375 6.753906 43.3125 6.773438 C 43.371094 7.023438 43.347656 7.324219 43.542969 7.519531 C 43.652344 7.585938 43.78125 7.613281 43.90625 7.652344 C 43.972656 7.617188 44.097656 7.546875 44.160156 7.511719 C 44.292969 7.269531 44.320312 6.996094 44.273438 6.730469 C 43.832031 6.449219 43.292969 6.3125 42.925781 5.929688 C 42.410156 5.285156 42.636719 4.101562 43.472656 3.847656 Z M 34.671875 4.53125 C 35.078125 4.210938 35.632812 4.132812 36.125 4.261719 C 36.699219 4.464844 37.085938 5.027344 37.164062 5.625 C 36.84375 5.707031 36.519531 5.789062 36.191406 5.835938 C 36.140625 5.675781 36.089844 5.515625 36.042969 5.359375 C 35.867188 5.320312 35.695312 5.28125 35.523438 5.242188 C 35.351562 5.363281 35.128906 5.457031 35.085938 5.6875 C 35.183594 6.296875 35.316406 6.90625 35.457031 7.507812 C 35.535156 7.914062 36.105469 8.042969 36.378906 7.75 C 36.5625 7.589844 36.492188 7.316406 36.53125 7.101562 C 36.828125 7.007812 37.128906 6.914062 37.441406 6.871094 C 37.652344 7.160156 37.632812 7.558594 37.546875 7.890625 C 37.332031 8.46875 36.734375 8.785156 36.167969 8.929688 C 35.421875 9.035156 34.578125 8.527344 34.460938 7.75 C 34.332031 7.066406 34.191406 6.386719 34.078125 5.707031 C 33.980469 5.226562 34.3125 4.800781 34.671875 4.53125 Z M 50.035156 6.847656 C 50.28125 6.335938 50.742188 5.832031 51.355469 5.855469 C 52.207031 5.863281 53.167969 6.5625 53.023438 7.5 C 52.902344 8.144531 52.527344 8.699219 52.296875 9.308594 C 52.035156 9.859375 51.84375 10.445312 51.527344 10.96875 C 51.226562 10.890625 50.957031 10.738281 50.675781 10.613281 C 50.746094 10.191406 50.976562 9.828125 51.132812 9.441406 C 51.394531 8.824219 51.6875 8.226562 51.933594 7.605469 C 52.035156 7.398438 51.902344 7.199219 51.835938 7.003906 C 51.578125 6.964844 51.214844 6.878906 51.074219 7.179688 C 50.628906 8.15625 50.207031 9.148438 49.761719 10.125 C 49.398438 10.089844 49.074219 9.910156 48.765625 9.730469 C 49.183594 8.769531 49.617188 7.8125 50.035156 6.847656 Z M 50.035156 6.847656 "/>
<path style=" stroke:none;fill-rule:nonzero;fill:rgb(98.039216%,99.215686%,98.039216%);fill-opacity:1;" d="M 26.707031 7.90625 C 26.992188 7.734375 27.273438 7.554688 27.574219 7.410156 C 28.246094 8.472656 28.824219 9.59375 29.484375 10.664062 C 29.980469 10.382812 30.460938 10.078125 30.96875 9.820312 C 31.136719 10.101562 31.296875 10.382812 31.445312 10.675781 C 30.648438 11.105469 29.878906 11.582031 29.085938 12.027344 C 28.292969 10.652344 27.515625 9.269531 26.707031 7.90625 Z M 26.707031 7.90625 "/>
<path style=" stroke:none;fill-rule:nonzero;fill:rgb(98.431373%,99.215686%,98.039216%);fill-opacity:1;" d="M 54.316406 8.25 C 55.027344 7.773438 56.121094 8.046875 56.519531 8.808594 C 56.640625 9.007812 56.695312 9.238281 56.773438 9.457031 C 56.75 9.765625 56.707031 10.09375 56.515625 10.347656 C 56.101562 10.925781 55.714844 11.523438 55.277344 12.085938 C 54.957031 12.484375 54.394531 12.570312 53.917969 12.460938 C 53.03125 12.292969 52.378906 11.265625 52.738281 10.40625 C 52.964844 9.992188 53.269531 9.625 53.527344 9.226562 C 53.777344 8.890625 53.976562 8.503906 54.316406 8.25 Z M 54.316406 8.25 "/>
<path style=" stroke:none;fill-rule:nonzero;fill:rgb(0.392157%,0.392157%,0.392157%);fill-opacity:1;" d="M 54.558594 9.359375 C 54.675781 9.164062 54.882812 9.0625 55.082031 8.972656 C 55.25 9.046875 55.417969 9.125 55.582031 9.207031 C 55.671875 9.453125 55.785156 9.75 55.609375 9.992188 C 55.347656 10.390625 55.074219 10.78125 54.792969 11.167969 C 54.53125 11.484375 54.058594 11.503906 53.746094 11.253906 C 53.703125 11.128906 53.660156 11.007812 53.617188 10.886719 C 53.824219 10.316406 54.226562 9.859375 54.558594 9.359375 Z M 54.558594 9.359375 "/>
<path style=" stroke:none;fill-rule:nonzero;fill:rgb(98.431373%,99.215686%,98.431373%);fill-opacity:1;" d="M 24.046875 9.921875 C 24.589844 9.355469 25.625 9.230469 26.195312 9.832031 C 26.949219 10.652344 27.726562 11.453125 28.460938 12.292969 C 28.222656 12.515625 27.988281 12.746094 27.75 12.964844 C 26.964844 12.214844 26.292969 11.359375 25.511719 10.609375 C 25.347656 10.433594 25.09375 10.507812 24.886719 10.5 C 24.75 10.707031 24.601562 11.003906 24.792969 11.226562 C 25.488281 12.015625 26.21875 12.777344 26.941406 13.539062 C 26.9375 13.605469 26.9375 13.671875 26.933594 13.742188 C 26.6875 13.941406 26.464844 14.164062 26.230469 14.378906 C 25.578125 13.652344 24.890625 12.957031 24.246094 12.222656 C 24.0625 12.039062 23.867188 11.777344 23.570312 11.863281 C 23.269531 11.945312 23.085938 12.359375 23.339844 12.597656 C 24.058594 13.40625 24.808594 14.191406 25.554688 14.980469 C 25.332031 15.25 25.066406 15.476562 24.804688 15.699219 C 24.054688 14.921875 23.332031 14.117188 22.589844 13.335938 C 22.160156 12.921875 22.082031 12.246094 22.320312 11.707031 C 22.507812 11.148438 23.085938 10.824219 23.65625 10.796875 C 23.738281 10.488281 23.816406 10.160156 24.046875 9.921875 Z M 24.046875 9.921875 "/>
<path style=" stroke:none;fill-rule:nonzero;fill:rgb(100%,100%,100%);fill-opacity:1;" d="M 32.785156 11.519531 C 36.667969 9.730469 41.125 9.253906 45.300781 10.148438 C 49.335938 10.992188 53.074219 13.136719 55.882812 16.152344 C 57.417969 17.8125 58.683594 19.722656 59.609375 21.785156 C 60.234375 23.257812 60.742188 24.792969 61 26.378906 C 58.898438 25.964844 56.824219 25.40625 54.808594 24.683594 C 53.851562 24.335938 52.90625 23.953125 52.011719 23.464844 C 51.871094 23.390625 51.742188 23.292969 51.644531 23.167969 C 51.242188 22.6875 50.835938 22.207031 50.429688 21.726562 C 50.328125 21.539062 50.109375 21.609375 49.9375 21.601562 C 49.902344 21.40625 49.871094 21.210938 49.847656 21.011719 C 49.449219 20.605469 49.457031 20.027344 49.4375 19.496094 C 49.273438 17.882812 49.351562 16.222656 48.878906 14.65625 C 48.257812 13.265625 46.980469 12.140625 45.464844 11.878906 C 44.390625 11.710938 43.28125 11.792969 42.238281 12.09375 C 40.300781 12.636719 38.53125 13.640625 36.851562 14.730469 C 35.332031 15.730469 33.890625 16.84375 32.496094 18.007812 C 30.769531 18.105469 29.171875 18.839844 27.65625 19.613281 C 26.664062 20.101562 25.671875 20.636719 24.578125 20.867188 C 24.035156 20.9375 23.488281 20.976562 22.953125 21.109375 C 24.996094 16.898438 28.535156 13.445312 32.785156 11.519531 Z M 32.785156 11.519531 "/>
<path style=" stroke:none;fill-rule:nonzero;fill:rgb(98.431373%,99.215686%,98.431373%);fill-opacity:1;" d="M 57.824219 10.570312 C 58.011719 10.382812 58.171875 10.113281 58.472656 10.128906 C 58.957031 10.722656 59.734375 11.109375 59.9375 11.894531 C 60.007812 12.324219 59.914062 12.800781 59.609375 13.121094 C 59.160156 13.628906 58.703125 14.125 58.226562 14.605469 C 57.847656 15.003906 57.226562 15.039062 56.730469 14.878906 C 56.105469 14.539062 55.628906 13.996094 55.113281 13.515625 C 55.992188 12.511719 56.9375 11.566406 57.824219 10.570312 Z M 57.824219 10.570312 "/>
<path style=" stroke:none;fill-rule:nonzero;fill:rgb(0.392157%,0%,0.392157%);fill-opacity:1;" d="M 58.398438 11.539062 C 58.675781 11.710938 58.90625 11.964844 58.925781 12.308594 C 58.425781 12.851562 57.929688 13.394531 57.421875 13.925781 C 57.265625 13.921875 57.105469 13.921875 56.949219 13.917969 C 56.816406 13.785156 56.683594 13.65625 56.550781 13.527344 C 57.175781 12.875 57.792969 12.214844 58.398438 11.539062 Z M 58.398438 11.539062 "/>
<path style=" stroke:none;fill-rule:nonzero;fill:rgb(100%,100%,100%);fill-opacity:1;" d="M 39.519531 15.191406 C 41.046875 14.308594 42.671875 13.476562 44.449219 13.273438 C 45.574219 13.121094 46.84375 13.453125 47.546875 14.402344 C 48.121094 15.03125 48.183594 15.921875 48.261719 16.730469 C 48.363281 17.539062 48.320312 18.363281 48.445312 19.171875 C 48.128906 19.234375 47.816406 19.324219 47.496094 19.351562 C 47.332031 19.269531 47.167969 19.195312 47.023438 19.085938 C 46.96875 18.867188 46.933594 18.640625 46.898438 18.417969 C 45.605469 18.660156 44.242188 18.925781 43.183594 19.761719 C 42.648438 20.171875 42.335938 20.800781 42.226562 21.453125 C 42.222656 21.652344 42.21875 21.851562 42.234375 22.050781 C 42.414062 22.199219 42.671875 22.160156 42.886719 22.210938 C 42.585938 22.769531 42.3125 23.351562 42.230469 23.984375 L 42.230469 24.425781 C 42.738281 24.347656 43.167969 24.054688 43.640625 23.882812 C 43.621094 23.996094 43.578125 24.222656 43.558594 24.335938 C 43.550781 24.488281 43.542969 24.644531 43.535156 24.796875 C 43.632812 25.039062 43.75 25.277344 43.890625 25.5 C 44.570312 25.351562 45.160156 24.957031 45.8125 24.722656 L 45.738281 25.101562 C 45.761719 25.175781 45.816406 25.324219 45.839844 25.398438 C 46.542969 25.226562 47.203125 24.925781 47.792969 24.507812 C 48.5625 24.011719 49.3125 23.363281 50.246094 23.238281 C 50.769531 23.570312 51.011719 24.253906 51.566406 24.570312 C 52.464844 25.113281 53.4375 25.515625 54.414062 25.890625 C 56.421875 26.640625 58.484375 27.230469 60.578125 27.671875 C 61.667969 27.910156 62.777344 28.074219 63.832031 28.441406 C 64.421875 28.65625 65.015625 29.015625 65.277344 29.617188 C 65.769531 30.796875 65.761719 32.191406 65.183594 33.335938 C 64.664062 34.296875 63.738281 35.082031 62.65625 35.289062 C 58.3125 36.296875 53.902344 36.976562 49.488281 37.5625 C 48.175781 37.707031 46.867188 37.867188 45.554688 37.980469 C 42.523438 38.25 39.480469 38.402344 36.433594 38.367188 C 35.4375 38.378906 34.429688 38.359375 33.457031 38.125 C 33.074219 37.980469 32.683594 37.816406 32.40625 37.503906 C 32.03125 37.132812 31.925781 36.601562 31.828125 36.101562 C 31.667969 35.191406 31.449219 34.285156 31.417969 33.355469 C 31.386719 32.546875 31.660156 31.773438 31.8125 30.992188 C 32.285156 28.625 32.65625 26.238281 33.257812 23.898438 C 33.335938 23.613281 33.292969 23.3125 33.371094 23.023438 C 33.6875 21.695312 34.0625 20.378906 34.40625 19.058594 C 34.445312 18.945312 34.460938 18.808594 34.558594 18.726562 C 36.136719 17.449219 37.769531 16.226562 39.519531 15.191406 Z M 39.519531 15.191406 "/>
<path style=" stroke:none;fill-rule:nonzero;fill:rgb(98.431373%,99.215686%,98.431373%);fill-opacity:1;" d="M 57.714844 16.121094 C 58.996094 15.191406 60.273438 14.257812 61.554688 13.332031 C 62.011719 13.992188 62.496094 14.636719 62.960938 15.292969 C 62.695312 15.480469 62.449219 15.691406 62.160156 15.84375 C 61.847656 15.488281 61.585938 15.085938 61.3125 14.699219 C 61.105469 14.84375 60.902344 14.980469 60.695312 15.121094 C 60.707031 15.441406 60.972656 15.660156 61.121094 15.925781 C 60.878906 16.105469 60.632812 16.285156 60.382812 16.457031 C 60.214844 16.222656 60.050781 15.980469 59.863281 15.765625 C 59.644531 15.894531 59.441406 16.042969 59.234375 16.1875 L 59.089844 16.367188 C 59.367188 16.742188 59.648438 17.121094 59.910156 17.511719 C 59.648438 17.710938 59.382812 17.898438 59.109375 18.074219 C 58.652344 17.417969 58.136719 16.800781 57.714844 16.121094 Z M 57.714844 16.121094 "/>
<path style=" stroke:none;fill-rule:nonzero;fill:rgb(98.823529%,99.215686%,98.039216%);fill-opacity:1;" d="M 20.292969 13.855469 C 20.394531 13.714844 20.480469 13.554688 20.621094 13.453125 C 20.910156 13.582031 21.136719 13.808594 21.390625 13.992188 C 21.191406 14.269531 20.984375 14.542969 20.800781 14.832031 C 21.816406 15.558594 22.8125 16.304688 23.828125 17.027344 C 23.679688 17.316406 23.480469 17.570312 23.285156 17.828125 C 22.253906 17.09375 21.242188 16.332031 20.207031 15.601562 C 20.03125 15.863281 19.867188 16.128906 19.664062 16.371094 C 19.34375 16.355469 19.117188 16.039062 18.847656 15.886719 C 19.289062 15.179688 19.824219 14.542969 20.292969 13.855469 Z M 20.292969 13.855469 "/>
<path style=" stroke:none;fill-rule:nonzero;fill:rgb(98.823529%,99.607843%,98.431373%);fill-opacity:1;" d="M 17.71875 17.984375 C 17.890625 17.648438 18.066406 17.3125 18.273438 17 C 19.628906 17.738281 21.019531 18.421875 22.351562 19.203125 C 22.371094 19.574219 22.054688 19.90625 21.882812 20.226562 C 21.320312 19.957031 20.808594 19.589844 20.222656 19.378906 C 20.132812 19.570312 20.046875 19.761719 19.960938 19.957031 C 20.488281 20.273438 21.074219 20.496094 21.574219 20.859375 C 21.414062 21.1875 21.238281 21.507812 21.066406 21.832031 C 19.675781 21.128906 18.3125 20.371094 16.9375 19.648438 C 16.886719 19.4375 17.066406 19.246094 17.136719 19.058594 C 17.234375 18.917969 17.277344 18.703125 17.449219 18.640625 C 18.003906 18.890625 18.519531 19.226562 19.078125 19.480469 C 19.183594 19.289062 19.289062 19.097656 19.398438 18.910156 C 18.839844 18.59375 18.269531 18.304688 17.71875 17.984375 Z M 17.71875 17.984375 "/>
<path style=" stroke:none;fill-rule:nonzero;fill:rgb(96.470588%,98.823529%,97.254902%);fill-opacity:1;" d="M 59.597656 18.507812 C 59.722656 18.167969 60.140625 18.148438 60.40625 18.324219 C 60.523438 18.566406 60.53125 18.820312 60.398438 19.054688 C 60.265625 19.109375 60.132812 19.160156 60 19.214844 C 59.757812 19.078125 59.394531 18.832031 59.597656 18.507812 Z M 59.597656 18.507812 "/>
<path style=" stroke:none;fill-rule:nonzero;fill:rgb(97.254902%,98.431373%,97.647059%);fill-opacity:1;" d="M 43.410156 20.722656 C 44.417969 19.851562 45.6875 19.414062 46.933594 19.019531 L 47.023438 19.085938 C 47.167969 19.195312 47.332031 19.273438 47.496094 19.351562 C 46.109375 19.898438 44.773438 20.570312 43.40625 21.160156 C 43.40625 21.011719 43.40625 20.867188 43.410156 20.722656 Z M 43.410156 20.722656 "/>
<path style=" stroke:none;fill-rule:nonzero;fill:rgb(98.823529%,99.215686%,98.431373%);fill-opacity:1;" d="M 60.761719 20.011719 C 60.945312 19.578125 61.359375 19.316406 61.773438 19.132812 C 61.914062 19.460938 62.0625 19.785156 62.203125 20.113281 C 61.917969 20.265625 61.652344 20.492188 61.714844 20.847656 C 61.878906 20.890625 62.050781 21.035156 62.226562 20.945312 C 63.265625 20.527344 64.257812 20 65.285156 19.554688 C 65.433594 19.898438 65.601562 20.234375 65.738281 20.585938 C 64.992188 20.949219 64.230469 21.285156 63.484375 21.644531 C 62.96875 21.855469 62.433594 22.164062 61.859375 22.054688 C 60.976562 21.90625 60.375 20.832031 60.761719 20.011719 Z M 60.761719 20.011719 "/>
<path style=" stroke:none;fill-rule:nonzero;fill:rgb(100%,100%,100%);fill-opacity:1;" d="M 25.46875 22.304688 C 28.09375 21.773438 30.210938 19.789062 32.90625 19.507812 C 32.597656 20.789062 32.21875 22.050781 31.914062 23.328125 C 31.820312 23.730469 31.835938 24.148438 31.710938 24.542969 C 31.011719 27.273438 30.660156 30.082031 30.003906 32.824219 C 29.828125 33.648438 29.925781 34.5 30.082031 35.316406 C 30.160156 35.863281 30.277344 36.410156 30.488281 36.921875 C 29.589844 36.960938 28.707031 37.269531 27.945312 37.738281 C 27.070312 38.253906 26.414062 39.15625 25.363281 39.328125 C 24.046875 39.421875 22.914062 38.574219 21.625 38.476562 C 21.15625 38.472656 20.71875 38.707031 20.25 38.6875 C 20.335938 38.625 20.421875 38.5625 20.507812 38.5 C 21.167969 38.15625 21.824219 37.753906 22.574219 37.644531 C 23.492188 37.542969 24.414062 37.476562 25.324219 37.324219 C 25.824219 37.234375 26.28125 37 26.664062 36.664062 C 27.164062 36.242188 27.984375 36.152344 28.214844 35.453125 C 28.261719 34.960938 28.160156 34.160156 27.539062 34.09375 C 27.015625 34.171875 26.582031 34.523438 26.175781 34.84375 C 25.5 35.378906 24.886719 36 24.160156 36.464844 C 23.832031 36.691406 23.414062 36.625 23.039062 36.628906 C 22.484375 36.621094 21.957031 36.410156 21.40625 36.367188 C 20.574219 36.457031 19.777344 36.742188 18.988281 37.011719 C 18.382812 37.199219 17.765625 37.402344 17.125 37.371094 C 16.253906 37.34375 15.425781 37.027344 14.65625 36.636719 C 15.1875 36.621094 15.71875 36.667969 16.246094 36.582031 C 18.023438 36.324219 19.632812 35.460938 21.367188 35.03125 C 21.921875 34.867188 22.515625 35.035156 23.058594 34.824219 C 23.878906 34.539062 24.648438 33.851562 24.761719 32.953125 C 24.816406 32.605469 24.679688 32.28125 24.519531 31.988281 C 24.027344 31.539062 23.34375 31.808594 22.835938 32.085938 C 21.378906 32.914062 20.183594 34.125 18.738281 34.96875 C 18.34375 35.191406 17.898438 35.324219 17.445312 35.304688 C 16.476562 35.277344 15.546875 34.96875 14.59375 34.820312 C 13.714844 34.65625 12.820312 34.6875 11.929688 34.722656 C 13.601562 33.910156 15.511719 33.996094 17.304688 33.667969 C 17.960938 33.539062 18.675781 33.453125 19.210938 33.019531 C 19.425781 32.867188 19.433594 32.582031 19.46875 32.347656 C 19.242188 31.714844 18.722656 31.109375 18.007812 31.097656 C 16.898438 31.132812 15.976562 31.835938 15.082031 32.417969 C 14.46875 32.816406 13.84375 33.394531 13.050781 33.300781 C 12.242188 33.191406 11.449219 32.921875 10.621094 32.933594 L 10.550781 32.886719 C 9.753906 32.871094 8.960938 32.957031 8.179688 33.101562 C 8.839844 32.691406 9.503906 32.257812 10.257812 32.046875 C 11.152344 31.785156 12.09375 31.890625 13 31.726562 C 14.511719 31.296875 15.488281 29.945312 16.839844 29.222656 C 17.242188 29.027344 17.699219 28.863281 18.152344 28.960938 C 19.292969 29.148438 19.972656 30.261719 21.0625 30.5625 C 22.039062 30.804688 23.058594 30.433594 23.84375 29.859375 C 24.273438 29.5625 24.625 29.132812 24.738281 28.613281 C 24.542969 28.066406 23.859375 27.960938 23.355469 28.007812 C 22.507812 28.082031 22.007812 28.863281 21.292969 29.222656 C 20.226562 29.105469 19.445312 28.289062 18.46875 27.945312 C 17.839844 27.785156 17.105469 27.863281 16.597656 28.292969 C 15.785156 28.949219 14.929688 29.609375 13.910156 29.90625 C 12.726562 30.289062 11.449219 30.097656 10.292969 29.710938 C 11.5 29.585938 12.730469 29.328125 13.777344 28.679688 C 15.0625 27.914062 16.015625 26.546875 17.558594 26.253906 C 18.414062 26.03125 19.261719 26.417969 20 26.824219 C 20.464844 27.058594 20.96875 27.335938 21.507812 27.230469 C 22.320312 27.046875 22.90625 26.417969 23.589844 25.992188 C 23.914062 25.78125 24.351562 25.761719 24.597656 25.433594 C 24.804688 25.261719 24.734375 24.980469 24.753906 24.746094 C 24.542969 24.511719 24.253906 24.324219 23.925781 24.390625 C 22.859375 24.484375 22.230469 25.523438 21.238281 25.808594 C 20.859375 25.890625 20.5 25.714844 20.148438 25.605469 C 19.5625 25.402344 18.949219 25.253906 18.324219 25.28125 C 17.753906 25.253906 17.210938 25.449219 16.65625 25.546875 C 16.917969 25.316406 17.175781 25.066406 17.503906 24.929688 C 18.28125 24.578125 19.164062 24.730469 19.980469 24.546875 C 20.726562 24.363281 21.296875 23.820312 21.933594 23.429688 C 22.601562 22.972656 23.351562 22.640625 24.144531 22.488281 C 24.578125 22.382812 25.03125 22.40625 25.46875 22.304688 Z M 25.46875 22.304688 "/>
<path style=" stroke:none;fill-rule:nonzero;fill:rgb(93.333333%,98.039216%,97.647059%);fill-opacity:1;" d="M 44.136719 22.265625 C 45.058594 21.609375 45.945312 20.859375 47.003906 20.425781 C 46.765625 20.695312 46.496094 20.9375 46.210938 21.15625 C 45.121094 22.003906 44.019531 22.828125 42.886719 23.617188 C 43.113281 23.023438 43.679688 22.667969 44.136719 22.265625 Z M 44.136719 22.265625 "/>
<path style=" stroke:none;fill-rule:nonzero;fill:rgb(99.215686%,99.215686%,98.823529%);fill-opacity:1;" d="M 47.949219 21.480469 C 48.265625 21.371094 48.605469 21.339844 48.929688 21.417969 C 48.953125 22.011719 48.386719 22.359375 48.007812 22.726562 C 46.824219 23.675781 45.445312 24.335938 44.050781 24.90625 C 44.132812 24.324219 44.332031 23.765625 44.539062 23.222656 C 45.636719 22.570312 46.734375 21.886719 47.949219 21.480469 Z M 47.949219 21.480469 "/>
<path style=" stroke:none;fill-rule:nonzero;fill:rgb(98.431373%,99.607843%,98.431373%);fill-opacity:1;" d="M 64.164062 22.988281 C 64.40625 22.542969 64.929688 22.367188 65.402344 22.316406 C 66.320312 22.328125 66.835938 23.410156 66.625 24.210938 C 66.484375 24.757812 65.953125 25.035156 65.46875 25.226562 C 65.386719 24.929688 65.3125 24.628906 65.234375 24.332031 C 65.398438 24.191406 65.710938 24.128906 65.710938 23.867188 C 65.714844 23.707031 65.683594 23.554688 65.667969 23.394531 C 65.511719 23.347656 65.355469 23.304688 65.199219 23.273438 L 65.050781 23.53125 C 65.03125 24.179688 64.988281 24.925781 64.46875 25.390625 C 64.089844 25.777344 63.496094 25.765625 63 25.691406 C 62.136719 25.460938 61.738281 24.382812 62.050781 23.589844 C 62.273438 23.105469 62.785156 22.878906 63.253906 22.707031 C 63.351562 23.027344 63.433594 23.351562 63.511719 23.675781 C 63.265625 23.832031 62.832031 23.949219 62.902344 24.324219 C 62.859375 24.523438 63.054688 24.617188 63.167969 24.738281 C 63.417969 24.710938 63.742188 24.75 63.890625 24.496094 C 64.023438 24.003906 63.941406 23.460938 64.164062 22.988281 Z M 64.164062 22.988281 "/>
<path style=" stroke:none;fill-rule:nonzero;fill:rgb(0.392157%,0.392157%,0.784314%);fill-opacity:1;" d="M 36.839844 27.839844 C 37.136719 26.871094 38.085938 26.300781 39.046875 26.183594 C 39.8125 26.136719 40.644531 26.257812 41.25 26.769531 C 41.667969 27.089844 41.824219 27.613281 41.96875 28.09375 C 42.203125 28.09375 42.441406 28.101562 42.675781 28.117188 C 42.714844 27.496094 43.246094 27.027344 43.796875 26.824219 C 44.136719 26.683594 44.464844 26.878906 44.761719 27.023438 C 45.015625 26.902344 45.242188 26.667969 45.546875 26.710938 C 45.808594 26.679688 46.070312 26.933594 46.320312 26.785156 C 46.691406 26.578125 47.167969 26.515625 47.539062 26.753906 C 47.925781 26.9375 48.058594 27.378906 48.160156 27.761719 C 48.9375 27.488281 49.867188 27.433594 50.554688 27.964844 C 50.753906 27.875 50.953125 27.78125 51.152344 27.683594 C 51.296875 27.019531 52.023438 26.582031 52.675781 26.753906 C 53.398438 26.910156 53.863281 27.820312 53.394531 28.453125 C 53.507812 28.839844 53.539062 29.25 53.390625 29.632812 C 53.679688 29.921875 53.996094 30.269531 53.929688 30.714844 C 53.980469 31.316406 53.539062 31.796875 53.078125 32.113281 C 53.371094 32.5625 53.191406 33.101562 53.363281 33.582031 C 53.472656 34.042969 53.386719 34.578125 53.015625 34.90625 C 52.507812 35.453125 51.699219 35.371094 51.027344 35.496094 C 50.902344 35.414062 50.78125 35.335938 50.660156 35.261719 C 49.972656 35.582031 49.128906 35.644531 48.496094 35.164062 C 48.25 35.398438 47.949219 35.570312 47.625 35.664062 C 47.289062 36.125 46.847656 36.585938 46.265625 36.691406 C 45.699219 36.710938 45.308594 36.199219 45.207031 35.6875 C 44.640625 35.863281 44.054688 35.785156 43.503906 35.59375 C 43.023438 35.980469 42.355469 36.027344 41.78125 35.835938 C 41.539062 36.3125 41.195312 36.753906 40.703125 36.996094 C 39.652344 37.519531 38.210938 37.34375 37.457031 36.390625 C 36.828125 35.613281 36.933594 34.394531 37.671875 33.722656 C 37.5625 33.484375 37.476562 33.230469 37.433594 32.972656 C 37.285156 32.925781 37.136719 32.882812 36.992188 32.839844 C 36.851562 32.914062 36.710938 32.988281 36.570312 33.0625 C 35.828125 33.0625 35.078125 32.988281 34.347656 33.183594 C 34.144531 33.035156 33.898438 32.921875 33.765625 32.699219 C 33.636719 32.472656 33.664062 32.203125 33.65625 31.953125 C 32.707031 31.675781 32.398438 30.34375 33.058594 29.636719 C 33.464844 29.195312 34.097656 29.121094 34.664062 29.148438 C 35.023438 28.972656 35.449219 28.738281 35.832031 29.007812 C 36.316406 29.21875 36.246094 29.816406 36.496094 30.199219 C 36.859375 30.445312 37.269531 30.101562 37.667969 30.097656 C 36.871094 29.683594 36.648438 28.660156 36.839844 27.839844 Z M 36.839844 27.839844 "/>
<path style=" stroke:none;fill-rule:nonzero;fill:rgb(97.647059%,98.823529%,98.039216%);fill-opacity:1;" d="M 38.636719 27.015625 C 39.28125 26.824219 40.019531 26.835938 40.605469 27.1875 C 41.226562 27.53125 41.425781 28.449219 41.003906 29.023438 C 40.828125 29.257812 40.53125 29.347656 40.273438 29.460938 C 40.589844 30.292969 41.074219 31.238281 41.992188 31.507812 C 42.519531 31.652344 42.933594 31.128906 43.449219 31.175781 C 43.734375 31.183594 43.710938 31.542969 43.738281 31.75 C 43.261719 32.480469 42.230469 32.609375 41.488281 32.242188 C 40.742188 31.859375 40.265625 31.109375 39.964844 30.351562 C 39.84375 30.050781 39.746094 29.738281 39.644531 29.433594 C 39.597656 29.4375 39.5 29.449219 39.453125 29.457031 C 39.464844 29.640625 39.476562 29.824219 39.492188 30.007812 C 39.605469 30.058594 39.722656 30.113281 39.839844 30.167969 C 39.8125 30.300781 39.78125 30.4375 39.746094 30.574219 C 39.53125 30.949219 39.210938 31.25 38.835938 31.453125 C 38.726562 31.351562 38.59375 31.273438 38.523438 31.140625 C 38.609375 30.886719 38.808594 30.675781 38.816406 30.398438 C 38.832031 29.921875 38.765625 29.445312 38.773438 28.964844 C 38.785156 28.683594 38.585938 28.460938 38.433594 28.246094 C 38.667969 27.929688 39.0625 27.984375 39.40625 27.992188 C 39.441406 28.054688 39.476562 28.113281 39.511719 28.171875 C 39.464844 28.425781 39.445312 28.679688 39.4375 28.9375 C 39.75 28.9375 40.128906 28.976562 40.335938 28.679688 C 40.65625 28.320312 40.355469 27.765625 39.945312 27.640625 C 39.308594 27.421875 38.386719 27.582031 38.132812 28.289062 C 38.242188 28.6875 38.632812 28.976562 38.605469 29.410156 C 38.4375 29.472656 38.257812 29.621094 38.074219 29.523438 C 37.554688 29.253906 37.378906 28.574219 37.546875 28.042969 C 37.675781 27.523438 38.144531 27.15625 38.636719 27.015625 Z M 38.636719 27.015625 "/>
<path style=" stroke:none;fill-rule:nonzero;fill:rgb(95.686275%,98.039216%,97.647059%);fill-opacity:1;" d="M 46.722656 27.367188 C 46.894531 27.304688 47.074219 27.34375 47.25 27.347656 C 47.398438 27.617188 47.496094 28.023438 47.21875 28.238281 C 47 28.324219 46.675781 28.3125 46.574219 28.058594 C 46.414062 27.832031 46.558594 27.546875 46.722656 27.367188 Z M 46.722656 27.367188 "/>
<path style=" stroke:none;fill-rule:nonzero;fill:rgb(97.254902%,98.823529%,97.647059%);fill-opacity:1;" d="M 43.398438 28.046875 C 43.542969 27.746094 43.859375 27.582031 44.148438 27.453125 C 44.542969 28.359375 44.316406 29.382812 44.496094 30.328125 C 44.59375 30.445312 44.707031 30.546875 44.8125 30.65625 C 44.816406 30.714844 44.824219 30.835938 44.828125 30.894531 C 44.445312 31.078125 44.011719 31.03125 43.601562 31 C 43.597656 30.933594 43.589844 30.796875 43.589844 30.730469 C 43.667969 30.609375 43.746094 30.492188 43.804688 30.359375 C 43.789062 29.710938 43.703125 29.0625 43.714844 28.410156 C 43.609375 28.289062 43.335938 28.257812 43.398438 28.046875 Z M 44.90625 27.851562 C 45.132812 27.65625 45.367188 27.449219 45.667969 27.386719 C 45.902344 27.910156 45.859375 28.5 45.917969 29.0625 C 45.957031 29.558594 45.8125 30.148438 46.214844 30.53125 L 46.613281 30.53125 C 46.664062 30.46875 46.769531 30.34375 46.820312 30.28125 C 46.824219 29.949219 46.824219 29.617188 46.808594 29.285156 C 46.710938 29.261719 46.515625 29.214844 46.417969 29.191406 C 46.511719 28.792969 46.863281 28.558594 47.214844 28.414062 C 47.453125 28.972656 47.339844 29.597656 47.457031 30.183594 C 47.574219 30.304688 47.691406 30.429688 47.8125 30.550781 C 47.808594 30.605469 47.800781 30.710938 47.796875 30.761719 C 47.441406 30.828125 47.082031 30.859375 46.722656 30.863281 C 46.609375 30.777344 46.5 30.695312 46.386719 30.613281 C 46.121094 31.109375 45.464844 30.957031 45.015625 30.859375 C 45.113281 30.59375 45.332031 30.359375 45.296875 30.0625 C 45.273438 29.585938 45.242188 29.109375 45.21875 28.632812 C 45.203125 28.515625 45.1875 28.402344 45.175781 28.289062 C 44.941406 28.25 44.914062 28.050781 44.90625 27.851562 Z M 44.90625 27.851562 "/>
<path style=" stroke:none;fill-rule:nonzero;fill:rgb(96.470588%,98.039216%,96.862745%);fill-opacity:1;" d="M 51.9375 27.679688 C 52.164062 27.246094 52.976562 27.449219 52.855469 27.972656 C 52.707031 28.230469 52.40625 28.105469 52.167969 28.117188 C 52.421875 28.464844 52.914062 28.78125 52.746094 29.277344 C 52.550781 29.738281 51.976562 29.777344 51.558594 29.917969 C 51.535156 29.964844 51.492188 30.058594 51.46875 30.105469 C 51.921875 30.339844 52.421875 29.972656 52.878906 30.195312 C 53.101562 30.273438 53.183594 30.511719 53.273438 30.707031 C 53.121094 31.46875 52.265625 31.765625 51.578125 31.714844 C 51.285156 31.660156 50.898438 31.621094 50.746094 31.328125 C 50.605469 31.0625 50.859375 30.734375 51.144531 30.785156 C 51.390625 30.960938 51.605469 31.183594 51.878906 31.320312 C 52.128906 31.222656 52.585938 31.179688 52.503906 30.804688 C 52.367188 30.617188 52.113281 30.640625 51.910156 30.65625 C 51.605469 30.679688 51.300781 30.679688 50.996094 30.671875 C 50.917969 30.59375 50.839844 30.515625 50.761719 30.4375 C 50.761719 30.335938 50.761719 30.234375 50.761719 30.136719 C 50.882812 30.023438 51.003906 29.914062 51.128906 29.804688 C 50.988281 29.648438 50.773438 29.523438 50.738281 29.300781 C 50.65625 29.050781 50.800781 28.820312 50.890625 28.601562 C 51.226562 28.417969 51.59375 28.316406 51.96875 28.261719 C 51.917969 28.074219 51.761719 27.84375 51.9375 27.679688 Z M 51.9375 27.679688 "/>
<path style=" stroke:none;fill-rule:nonzero;fill:rgb(97.254902%,98.431373%,97.647059%);fill-opacity:1;" d="M 49.003906 28.589844 C 49.269531 28.421875 49.621094 28.195312 49.929688 28.402344 C 50.257812 28.628906 50.214844 29.070312 50.246094 29.417969 C 50.230469 29.714844 50.550781 29.859375 50.570312 30.148438 C 50.296875 30.441406 50.023438 30.9375 49.542969 30.761719 C 49.628906 30.183594 49.785156 29.554688 49.515625 29.003906 C 49.347656 29.050781 49.183594 29.09375 49.015625 29.136719 C 48.972656 29.367188 48.890625 29.601562 48.921875 29.839844 C 48.949219 30.160156 49.246094 30.34375 49.394531 30.609375 C 49.011719 30.796875 48.585938 30.796875 48.171875 30.773438 L 48 30.5625 C 48.105469 30.453125 48.210938 30.34375 48.324219 30.242188 C 48.351562 30.152344 48.386719 30.0625 48.414062 29.972656 C 48.367188 29.734375 48.34375 29.492188 48.332031 29.253906 L 48.003906 29.191406 C 48.007812 29.023438 48.050781 28.859375 48.109375 28.703125 C 48.296875 28.578125 48.484375 28.449219 48.675781 28.328125 C 48.796875 28.460938 48.875 28.617188 48.957031 28.78125 C 48.96875 28.734375 48.992188 28.636719 49.003906 28.589844 Z M 49.003906 28.589844 "/>
<path style=" stroke:none;fill-rule:nonzero;fill:rgb(1.176471%,0.784314%,2.745098%);fill-opacity:1;" d="M 51.332031 29.042969 C 51.417969 28.730469 51.777344 28.75 52.03125 28.792969 C 52.113281 28.914062 52.179688 29.050781 52.226562 29.191406 C 52.050781 29.296875 51.859375 29.378906 51.671875 29.457031 C 51.539062 29.347656 51.226562 29.28125 51.332031 29.042969 Z M 51.332031 29.042969 "/>
<path style=" stroke:none;fill-rule:nonzero;fill:rgb(97.254902%,98.431373%,96.470588%);fill-opacity:1;" d="M 41.746094 28.902344 C 42.226562 28.664062 42.886719 28.824219 43.136719 29.320312 C 43.363281 29.816406 43.375 30.476562 42.964844 30.882812 C 42.664062 31.214844 42.148438 31.179688 41.75 31.082031 C 40.914062 30.714844 40.902344 29.269531 41.746094 28.902344 Z M 41.746094 28.902344 "/>
<path style=" stroke:none;fill-rule:nonzero;fill:rgb(8.235294%,12.54902%,15.686275%);fill-opacity:1;" d="M 39.453125 29.457031 C 39.503906 29.449219 39.597656 29.4375 39.644531 29.433594 C 39.746094 29.738281 39.84375 30.050781 39.964844 30.351562 C 39.890625 30.425781 39.816406 30.5 39.746094 30.574219 C 39.78125 30.4375 39.8125 30.304688 39.839844 30.167969 C 39.722656 30.113281 39.605469 30.0625 39.492188 30.007812 C 39.476562 29.824219 39.464844 29.640625 39.453125 29.457031 Z M 39.453125 29.457031 "/>
<path style=" stroke:none;fill-rule:nonzero;fill:rgb(0.784314%,0.392157%,1.176471%);fill-opacity:1;" d="M 41.878906 29.472656 C 42.113281 29.210938 42.605469 29.378906 42.644531 29.726562 C 42.679688 30.011719 42.734375 30.402344 42.425781 30.566406 C 42.210938 30.59375 41.917969 30.621094 41.820312 30.375 C 41.6875 30.101562 41.660156 29.703125 41.878906 29.472656 Z M 41.878906 29.472656 "/>
<path style=" stroke:none;fill-rule:nonzero;fill:rgb(94.901961%,98.039216%,97.647059%);fill-opacity:1;" d="M 35.003906 29.886719 C 35.164062 29.710938 35.359375 29.597656 35.601562 29.644531 C 35.601562 29.84375 35.628906 30.082031 35.4375 30.207031 C 35.265625 30.25 35.085938 30.253906 34.914062 30.269531 C 34.9375 30.6875 34.933594 31.109375 34.96875 31.53125 C 35.042969 31.625 35.117188 31.71875 35.195312 31.8125 C 34.988281 32.097656 34.773438 32.46875 34.367188 32.433594 C 34.441406 31.988281 34.683594 31.484375 34.382812 31.070312 C 34.207031 31.347656 33.738281 31.308594 33.5625 31.050781 C 33.3125 30.761719 33.363281 30.253906 33.6875 30.042969 C 34.066406 29.761719 34.570312 29.933594 35.003906 29.886719 Z M 35.003906 29.886719 "/>
<path style=" stroke:none;fill-rule:nonzero;fill:rgb(1.176471%,1.568627%,3.137255%);fill-opacity:1;" d="M 33.808594 30.753906 C 33.855469 30.574219 33.824219 30.335938 34.035156 30.261719 C 34.175781 30.230469 34.320312 30.21875 34.464844 30.21875 C 34.476562 30.429688 34.488281 30.648438 34.507812 30.863281 C 34.289062 30.757812 34.042969 30.769531 33.808594 30.753906 Z M 33.808594 30.753906 "/>
<path style=" stroke:none;fill-rule:nonzero;fill:rgb(94.901961%,97.647059%,97.254902%);fill-opacity:1;" d="M 35.4375 30.207031 C 35.515625 30.238281 35.675781 30.296875 35.757812 30.324219 C 35.796875 30.554688 35.800781 30.789062 35.816406 31.023438 C 36.066406 30.894531 36.320312 30.851562 36.5625 31.011719 C 36.585938 31.222656 36.609375 31.4375 36.625 31.648438 C 36.691406 31.746094 36.761719 31.839844 36.828125 31.9375 C 36.707031 32.082031 36.578125 32.222656 36.445312 32.359375 L 36.132812 32.296875 C 36.246094 31.976562 36.335938 31.605469 36.121094 31.300781 C 36.019531 31.335938 35.921875 31.386719 35.828125 31.433594 C 35.828125 31.589844 35.835938 31.742188 35.847656 31.898438 C 35.925781 32.027344 36.007812 32.152344 36.089844 32.277344 C 35.832031 32.3125 35.566406 32.335938 35.304688 32.339844 C 35.296875 32.300781 35.289062 32.214844 35.28125 32.171875 C 35.351562 32.066406 35.417969 31.964844 35.484375 31.859375 C 35.402344 31.523438 35.40625 31.171875 35.40625 30.828125 C 35.015625 30.738281 35.363281 30.421875 35.4375 30.207031 Z M 35.4375 30.207031 "/>
<path style=" stroke:none;fill-rule:nonzero;fill:rgb(94.509804%,98.431373%,97.647059%);fill-opacity:1;" d="M 37.261719 30.878906 C 37.597656 30.808594 38.058594 30.839844 38.136719 31.257812 C 38.265625 31.734375 37.636719 31.671875 37.339844 31.6875 C 37.355469 31.734375 37.386719 31.832031 37.402344 31.878906 C 37.65625 31.875 37.890625 31.761719 38.140625 31.734375 C 38.226562 32.335938 37.183594 32.425781 37.023438 31.890625 C 36.824219 31.535156 36.984375 31.136719 37.261719 30.878906 Z M 37.261719 30.878906 "/>
<path style=" stroke:none;fill-rule:nonzero;fill:rgb(38.039216%,65.098039%,76.470588%);fill-opacity:1;" d="M 37.195312 31.269531 C 37.402344 31.207031 37.609375 31.152344 37.820312 31.101562 C 37.859375 31.492188 37.378906 31.53125 37.195312 31.269531 Z M 37.195312 31.269531 "/>
<path style=" stroke:none;fill-rule:nonzero;fill:rgb(97.254902%,98.823529%,97.647059%);fill-opacity:1;" d="M 39.515625 31.890625 C 39.746094 31.925781 39.953125 31.632812 40.171875 31.796875 C 40.464844 32.046875 40.644531 32.441406 40.628906 32.828125 C 40.53125 32.910156 40.421875 32.964844 40.3125 33.027344 C 40.035156 32.796875 39.757812 32.554688 39.414062 32.433594 C 39.28125 32.480469 39.144531 32.53125 39.011719 32.582031 C 38.996094 32.746094 38.8125 32.96875 39.035156 33.066406 C 39.605469 33.398438 40.300781 33.472656 40.824219 33.902344 C 41.132812 34.316406 41.242188 34.835938 41.191406 35.34375 C 40.863281 36.613281 39.089844 36.957031 38.175781 36.117188 C 37.605469 35.644531 37.601562 34.558594 38.289062 34.191406 C 38.648438 33.964844 39.175781 33.96875 39.449219 34.328125 C 39.398438 34.449219 39.347656 34.570312 39.296875 34.691406 C 39.054688 34.773438 38.753906 34.785156 38.585938 35.007812 C 38.5 35.316406 38.625 35.6875 38.9375 35.816406 C 39.351562 35.996094 39.910156 35.957031 40.234375 35.621094 C 40.605469 35.199219 40.492188 34.460938 39.992188 34.191406 C 39.503906 33.929688 38.933594 33.839844 38.46875 33.523438 C 38.105469 33.273438 38.042969 32.730469 38.304688 32.382812 C 38.558594 31.976562 39.0625 31.832031 39.515625 31.890625 Z M 39.515625 31.890625 "/>
<path style=" stroke:none;fill-rule:nonzero;fill:rgb(96.862745%,98.039216%,97.647059%);fill-opacity:1;" d="M 50.996094 32.445312 C 51.292969 32.175781 51.746094 32.445312 52.050781 32.191406 C 52.105469 32.191406 52.21875 32.1875 52.277344 32.1875 C 52.425781 32.425781 52.539062 32.679688 52.632812 32.945312 C 52.316406 33.234375 51.992188 32.9375 51.710938 32.761719 C 51.660156 32.769531 51.558594 32.78125 51.507812 32.785156 C 51.503906 32.871094 51.503906 32.960938 51.503906 33.046875 C 51.867188 33.210938 52.308594 33.253906 52.59375 33.554688 C 52.8125 33.789062 52.65625 34.105469 52.59375 34.371094 C 52.304688 34.621094 51.933594 34.6875 51.566406 34.621094 C 51.433594 34.6875 51.292969 34.8125 51.136719 34.746094 C 50.875 34.527344 50.707031 34.203125 50.714844 33.855469 C 51.113281 33.644531 51.421875 34.035156 51.777344 34.15625 C 52.039062 34.261719 51.980469 33.9375 52.011719 33.796875 C 51.636719 33.675781 51.261719 33.566406 50.910156 33.386719 L 50.753906 33.132812 C 50.75 32.882812 50.796875 32.617188 50.996094 32.445312 Z M 50.996094 32.445312 "/>
<path style=" stroke:none;fill-rule:nonzero;fill:rgb(97.254902%,98.823529%,97.647059%);fill-opacity:1;" d="M 46.644531 32.816406 C 46.949219 32.636719 47.324219 32.441406 47.671875 32.636719 C 48.34375 33.015625 48.421875 34.035156 47.992188 34.625 C 47.777344 34.960938 47.269531 35.0625 46.953125 34.820312 C 46.765625 34.722656 46.75 34.414062 46.917969 34.292969 C 47.074219 34.269531 47.234375 34.257812 47.394531 34.261719 C 47.652344 34.015625 47.71875 33.671875 47.550781 33.351562 L 47.304688 33.179688 C 47.070312 33.183594 46.769531 33.242188 46.71875 33.515625 C 46.675781 33.882812 46.703125 34.257812 46.71875 34.625 C 46.710938 34.839844 46.929688 34.941406 47.027344 35.109375 C 47.078125 35.28125 46.910156 35.398438 46.824219 35.523438 C 46.613281 35.726562 46.386719 36.027344 46.054688 35.9375 C 45.921875 35.636719 46.109375 35.320312 46.101562 35.011719 C 46.082031 34.515625 46.015625 34.023438 46.027344 33.523438 C 45.921875 33.472656 45.816406 33.421875 45.710938 33.371094 C 45.703125 33.308594 45.683594 33.1875 45.671875 33.125 C 45.886719 32.890625 46.125 32.628906 46.460938 32.605469 C 46.507812 32.65625 46.601562 32.761719 46.644531 32.816406 Z M 46.644531 32.816406 "/>
<path style=" stroke:none;fill-rule:nonzero;fill:rgb(97.254902%,98.431373%,97.647059%);fill-opacity:1;" d="M 48.835938 32.695312 C 49.285156 32.238281 50.179688 32.328125 50.460938 32.933594 C 50.570312 33.167969 50.640625 33.574219 50.347656 33.695312 C 49.980469 33.886719 49.566406 33.832031 49.171875 33.835938 C 49.183594 33.890625 49.207031 34.003906 49.214844 34.0625 C 49.648438 34.382812 50.054688 33.925781 50.507812 33.941406 C 50.515625 34.078125 50.546875 34.21875 50.527344 34.359375 C 50.367188 34.652344 50.011719 34.71875 49.722656 34.824219 C 49.179688 34.832031 48.628906 34.480469 48.542969 33.914062 C 48.417969 33.492188 48.53125 33.015625 48.835938 32.695312 Z M 48.835938 32.695312 "/>
<path style=" stroke:none;fill-rule:nonzero;fill:rgb(97.647059%,99.215686%,97.254902%);fill-opacity:1;" d="M 43.648438 33.105469 C 43.925781 32.683594 44.5 32.660156 44.941406 32.789062 C 45.484375 32.988281 45.589844 33.640625 45.574219 34.152344 C 45.476562 34.449219 45.355469 34.789062 45.050781 34.933594 C 44.757812 35.105469 44.414062 35.039062 44.089844 35.050781 C 43.390625 34.707031 43.167969 33.722656 43.648438 33.105469 Z M 43.648438 33.105469 "/>
<path style=" stroke:none;fill-rule:nonzero;fill:rgb(96.862745%,98.823529%,97.254902%);fill-opacity:1;" d="M 41.742188 33.0625 C 41.945312 32.882812 42.222656 32.835938 42.472656 32.765625 C 42.703125 32.847656 42.96875 32.890625 43.148438 33.074219 C 43.28125 33.253906 43.246094 33.535156 43.035156 33.644531 C 42.738281 33.523438 42.441406 33.359375 42.105469 33.410156 C 41.917969 33.746094 41.835938 34.242188 42.183594 34.5 C 42.558594 34.683594 42.910156 34.308594 43.292969 34.367188 C 43.300781 34.5625 43.394531 34.832031 43.179688 34.953125 C 42.886719 35.230469 42.453125 35.25 42.078125 35.171875 C 41.253906 34.871094 41.078125 33.609375 41.742188 33.0625 Z M 41.742188 33.0625 "/>
<path style=" stroke:none;fill-rule:nonzero;fill:rgb(1.176471%,3.137255%,3.921569%);fill-opacity:1;" d="M 49.253906 32.996094 C 49.535156 32.933594 49.945312 32.863281 49.964844 33.269531 C 49.671875 33.355469 49.363281 33.394531 49.058594 33.410156 C 49.121094 33.273438 49.1875 33.132812 49.253906 32.996094 Z M 49.253906 32.996094 "/>
<path style=" stroke:none;fill-rule:nonzero;fill:rgb(1.568627%,1.176471%,1.568627%);fill-opacity:1;" d="M 44.207031 33.3125 C 44.390625 33.226562 44.597656 33.289062 44.792969 33.3125 C 44.9375 33.589844 45.050781 33.910156 44.925781 34.222656 C 44.808594 34.601562 44.1875 34.613281 44.058594 34.230469 C 44.011719 33.925781 43.945312 33.542969 44.207031 33.3125 Z M 44.207031 33.3125 "/>
<path style=" stroke:none;fill-rule:nonzero;fill:rgb(100%,100%,100%);fill-opacity:1;" d="M 63.769531 36.511719 C 64.546875 36.335938 65.109375 35.726562 65.707031 35.261719 C 66.792969 35.375 67.828125 35.890625 68.585938 36.671875 C 69.253906 37.417969 69.710938 38.394531 69.667969 39.410156 C 69.730469 40.757812 69.019531 42.058594 67.984375 42.886719 C 66.234375 44.328125 63.472656 44.355469 61.746094 42.859375 C 60.722656 42.003906 60.140625 40.628906 60.308594 39.296875 C 60.394531 38.488281 60.734375 37.722656 61.222656 37.082031 C 62.078125 36.914062 62.921875 36.699219 63.769531 36.511719 Z M 63.769531 36.511719 "/>
<path style=" stroke:none;fill-rule:nonzero;fill:rgb(98.039216%,98.823529%,98.039216%);fill-opacity:1;" d="M 13.53125 37.445312 C 13.847656 37.765625 14.160156 38.089844 14.488281 38.40625 C 14.722656 38.609375 14.757812 38.9375 14.867188 39.210938 C 16.433594 43.652344 19.136719 47.679688 22.648438 50.800781 C 25.777344 53.597656 29.539062 55.6875 33.578125 56.824219 C 38.175781 58.132812 43.117188 58.21875 47.761719 57.0625 C 54.339844 55.464844 60.25 51.324219 64.0625 45.71875 C 64.386719 45.683594 64.707031 45.648438 65.035156 45.632812 C 61.15625 51.609375 54.984375 56.054688 48.078125 57.765625 C 46.417969 58.199219 44.714844 58.457031 43.007812 58.570312 C 40.664062 58.726562 38.304688 58.585938 35.996094 58.167969 C 31.449219 57.34375 27.117188 55.371094 23.488281 52.503906 C 18.679688 48.722656 15.109375 43.371094 13.53125 37.445312 Z M 13.53125 37.445312 "/>
<path style=" stroke:none;fill-rule:nonzero;fill:rgb(100%,100%,100%);fill-opacity:1;" d="M 57.128906 37.84375 C 57.269531 37.828125 57.414062 37.777344 57.558594 37.8125 C 58.410156 38.507812 59.019531 39.511719 59.15625 40.613281 C 59.496094 42.769531 57.953125 44.925781 55.910156 45.539062 C 54.53125 45.988281 52.949219 45.800781 51.746094 44.980469 C 50.800781 44.363281 50.101562 43.375 49.875 42.261719 C 49.613281 41.148438 49.875 39.9375 50.492188 38.988281 C 50.570312 38.824219 50.765625 38.84375 50.914062 38.816406 C 52.996094 38.542969 55.0625 38.203125 57.128906 37.84375 Z M 28.402344 41.390625 C 28.851562 39.988281 29.953125 38.761719 31.367188 38.308594 C 31.5625 38.914062 32.039062 39.398438 32.644531 39.589844 C 33.980469 40.042969 35.414062 39.859375 36.796875 39.902344 C 37.476562 40.910156 37.832031 42.175781 37.578125 43.386719 C 37.214844 45.527344 35.195312 47.214844 33.035156 47.210938 C 31.464844 47.289062 29.890625 46.5 29.007812 45.195312 C 28.25 44.097656 28.042969 42.671875 28.402344 41.390625 Z M 40.289062 39.808594 C 42.59375 39.703125 44.898438 39.539062 47.191406 39.257812 C 48.003906 40.085938 48.527344 41.21875 48.476562 42.394531 C 48.464844 43.773438 47.710938 45.089844 46.59375 45.875 C 45.542969 46.628906 44.171875 46.925781 42.90625 46.648438 C 41.265625 46.320312 39.867188 45.011719 39.480469 43.371094 C 39.378906 42.636719 39.367188 41.875 39.589844 41.164062 C 39.753906 40.679688 40.015625 40.234375 40.289062 39.808594 Z M 40.289062 39.808594 "/>
<path style=" stroke:none;fill-rule:nonzero;fill:rgb(98.039216%,98.823529%,98.431373%);fill-opacity:1;" d="M 25.988281 40.730469 C 26.160156 40.644531 26.332031 40.5625 26.503906 40.480469 C 26.117188 41.425781 26.007812 42.457031 26.058594 43.472656 C 25.386719 42.691406 24.757812 41.875 24.179688 41.019531 C 24.796875 41.046875 25.414062 40.960938 25.988281 40.730469 Z M 25.988281 40.730469 "/>
<path style=" stroke:none;fill-rule:nonzero;fill:rgb(98.431373%,99.215686%,98.431373%);fill-opacity:1;" d="M 21.054688 44.367188 C 21.945312 43.8125 22.78125 43.171875 23.679688 42.625 C 23.890625 42.933594 24.097656 43.25 24.289062 43.574219 C 23.480469 44.101562 22.691406 44.65625 21.882812 45.179688 C 21.5 45.414062 21.078125 45.65625 20.613281 45.601562 C 19.785156 45.574219 19.125 44.71875 19.253906 43.910156 C 19.34375 43.414062 19.695312 42.976562 20.152344 42.773438 C 20.332031 43.054688 20.539062 43.320312 20.707031 43.605469 C 20.546875 43.84375 20.210938 44.058594 20.359375 44.386719 C 20.535156 44.640625 20.847656 44.488281 21.054688 44.367188 Z M 21.054688 44.367188 "/>
<path style=" stroke:none;fill-rule:nonzero;fill:rgb(98.823529%,99.215686%,98.431373%);fill-opacity:1;" d="M 23.539062 45.304688 C 23.886719 44.976562 24.285156 44.585938 24.804688 44.644531 C 25.597656 44.753906 26.246094 45.453125 26.371094 46.238281 C 26.414062 46.714844 26.121094 47.136719 25.761719 47.425781 C 24.972656 48.128906 24.246094 48.898438 23.429688 49.570312 C 23.222656 49.359375 23.015625 49.152344 22.8125 48.945312 C 23.191406 48.441406 23.695312 48.054688 24.160156 47.636719 C 23.929688 47.355469 23.6875 47.085938 23.441406 46.824219 C 22.949219 47.199219 22.527344 47.664062 22.058594 48.066406 C 21.84375 47.875 21.640625 47.667969 21.441406 47.464844 C 21.4375 47.425781 21.425781 47.34375 21.421875 47.304688 C 22.109375 46.621094 22.851562 45.988281 23.539062 45.304688 Z M 23.539062 45.304688 "/>
<path style=" stroke:none;fill-rule:nonzero;fill:rgb(100%,100%,100%);fill-opacity:1;" d="M 42.566406 48.410156 C 45.078125 48.734375 47.707031 47.347656 48.828125 45.0625 C 49.546875 46.039062 50.585938 46.761719 51.738281 47.128906 C 51.734375 47.148438 51.726562 47.199219 51.722656 47.21875 C 47.847656 49.617188 43.160156 50.664062 38.644531 50.085938 C 36.933594 49.867188 35.242188 49.445312 33.648438 48.78125 C 35.5 48.410156 37.125 47.136719 37.984375 45.457031 C 38.933594 47.09375 40.691406 48.21875 42.566406 48.410156 Z M 42.566406 48.410156 "/>
<path style=" stroke:none;fill-rule:nonzero;fill:rgb(0.784314%,1.176471%,1.568627%);fill-opacity:1;" d="M 24.566406 45.722656 C 24.984375 45.695312 25.46875 46.085938 25.300781 46.535156 C 25.152344 46.707031 24.972656 46.851562 24.800781 47 C 24.542969 46.753906 24.296875 46.5 24.0625 46.230469 C 24.230469 46.058594 24.398438 45.890625 24.566406 45.722656 Z M 24.566406 45.722656 "/>
<path style=" stroke:none;fill-rule:nonzero;fill:rgb(98.431373%,99.215686%,98.431373%);fill-opacity:1;" d="M 27.429688 46.675781 C 27.691406 46.847656 27.9375 47.039062 28.1875 47.222656 C 27.855469 47.996094 27.546875 48.777344 27.1875 49.535156 C 27.175781 49.605469 27.148438 49.75 27.136719 49.820312 C 27.835938 49.207031 28.570312 48.636719 29.289062 48.042969 C 29.527344 48.238281 29.769531 48.425781 30.019531 48.609375 C 28.773438 49.664062 27.488281 50.675781 26.234375 51.722656 C 25.996094 51.539062 25.757812 51.363281 25.515625 51.191406 C 26.144531 49.679688 26.800781 48.183594 27.429688 46.675781 Z M 27.429688 46.675781 "/>
<path style=" stroke:none;fill-rule:nonzero;fill:rgb(98.431373%,99.215686%,97.647059%);fill-opacity:1;" d="M 50.335938 49.902344 C 51.210938 49.410156 52.0625 48.875 52.917969 48.351562 C 53.09375 48.625 53.261719 48.90625 53.414062 49.199219 C 53.136719 49.367188 52.847656 49.515625 52.582031 49.707031 C 52.605469 49.851562 52.683594 49.976562 52.757812 50.101562 C 53.3125 51.027344 53.886719 51.945312 54.421875 52.882812 C 54.445312 52.898438 54.5 52.933594 54.523438 52.953125 C 54.246094 53.117188 53.972656 53.289062 53.703125 53.46875 C 52.96875 52.433594 52.398438 51.292969 51.703125 50.230469 C 51.40625 50.40625 51.113281 50.589844 50.808594 50.746094 C 50.648438 50.464844 50.492188 50.183594 50.335938 49.902344 Z M 50.335938 49.902344 "/>
<path style=" stroke:none;fill-rule:nonzero;fill:rgb(98.431373%,99.215686%,98.039216%);fill-opacity:1;" d="M 30.679688 49.410156 C 31.566406 49.148438 32.65625 49.710938 32.875 50.632812 C 32.964844 51.121094 32.667969 51.546875 32.464844 51.960938 C 32.050781 52.808594 31.609375 53.640625 31.179688 54.480469 C 30.894531 54.351562 30.617188 54.207031 30.339844 54.054688 C 30.617188 53.496094 30.902344 52.941406 31.183594 52.378906 C 30.855469 52.214844 30.546875 52.015625 30.195312 51.90625 C 29.9375 52.449219 29.636719 52.96875 29.386719 53.519531 C 29.085938 53.4375 28.808594 53.292969 28.53125 53.160156 C 28.550781 52.90625 28.664062 52.675781 28.78125 52.457031 C 29.164062 51.703125 29.566406 50.957031 29.933594 50.195312 C 30.085938 49.859375 30.3125 49.527344 30.679688 49.410156 Z M 30.679688 49.410156 "/>
<path style=" stroke:none;fill-rule:nonzero;fill:rgb(0.784314%,1.176471%,1.568627%);fill-opacity:1;" d="M 30.925781 50.480469 C 30.988281 50.453125 31.113281 50.40625 31.171875 50.382812 C 31.464844 50.445312 31.894531 50.578125 31.890625 50.945312 C 31.820312 51.179688 31.6875 51.390625 31.574219 51.605469 C 31.25 51.445312 30.925781 51.289062 30.605469 51.113281 C 30.707031 50.898438 30.816406 50.6875 30.925781 50.480469 Z M 30.925781 50.480469 "/>
<path style=" stroke:none;fill-rule:nonzero;fill:rgb(98.823529%,99.607843%,98.823529%);fill-opacity:1;" d="M 46.972656 51.097656 C 47.75 50.882812 48.515625 50.269531 49.347656 50.578125 C 50.148438 50.808594 50.601562 51.816406 50.21875 52.5625 C 49.980469 53.050781 49.496094 53.347656 49 53.519531 C 49.207031 54.070312 49.433594 54.613281 49.617188 55.175781 C 49.351562 55.292969 49.078125 55.398438 48.8125 55.519531 C 48.746094 55.523438 48.679688 55.523438 48.617188 55.527344 C 48.179688 54.40625 47.757812 53.277344 47.328125 52.152344 C 47.195312 51.804688 47.027344 51.46875 46.972656 51.097656 Z M 46.972656 51.097656 "/>
<path style=" stroke:none;fill-rule:nonzero;fill:rgb(98.039216%,98.823529%,97.647059%);fill-opacity:1;" d="M 34.320312 50.835938 C 34.839844 50.679688 35.417969 50.792969 35.871094 51.089844 C 36.355469 51.46875 36.449219 52.167969 36.273438 52.730469 C 35.988281 52.65625 35.703125 52.574219 35.425781 52.480469 C 35.394531 52.246094 35.445312 51.914062 35.1875 51.789062 C 35.03125 51.671875 34.832031 51.710938 34.652344 51.695312 C 34.597656 51.832031 34.542969 51.964844 34.492188 52.101562 C 34.984375 52.539062 35.652344 52.839844 35.902344 53.5 C 36.183594 54.347656 35.578125 55.34375 34.703125 55.511719 C 34.574219 55.507812 34.449219 55.507812 34.324219 55.507812 C 33.871094 55.394531 33.367188 55.234375 33.125 54.800781 C 32.863281 54.378906 32.941406 53.859375 33.011719 53.398438 C 33.332031 53.464844 33.652344 53.539062 33.964844 53.65625 C 33.984375 53.96875 33.949219 54.304688 34.183594 54.550781 C 34.296875 54.550781 34.523438 54.554688 34.636719 54.554688 C 34.785156 54.347656 34.96875 54.113281 34.933594 53.84375 C 34.585938 53.371094 33.960938 53.183594 33.664062 52.664062 C 33.394531 52.015625 33.65625 51.132812 34.320312 50.835938 Z M 34.320312 50.835938 "/>
<path style=" stroke:none;fill-rule:nonzero;fill:rgb(98.431373%,99.607843%,98.039216%);fill-opacity:1;" d="M 45.183594 51.398438 C 45.53125 51.324219 45.878906 51.25 46.230469 51.199219 C 46.550781 52.75 46.820312 54.304688 47.144531 55.851562 C 46.859375 55.921875 46.574219 55.984375 46.28125 56.027344 C 46.246094 56.050781 46.175781 56.09375 46.140625 56.117188 C 45.996094 55.730469 45.945312 55.320312 45.863281 54.917969 C 45.636719 53.746094 45.402344 52.574219 45.183594 51.398438 Z M 45.183594 51.398438 "/>
<path style=" stroke:none;fill-rule:nonzero;fill:rgb(0.784314%,0.784314%,1.568627%);fill-opacity:1;" d="M 48.300781 51.71875 C 48.585938 51.601562 48.886719 51.515625 49.199219 51.582031 C 49.320312 51.800781 49.414062 52.058594 49.300781 52.304688 C 49.117188 52.484375 48.859375 52.558594 48.613281 52.621094 C 48.507812 52.320312 48.394531 52.023438 48.300781 51.71875 Z M 48.300781 51.71875 "/>
<path style=" stroke:none;fill-rule:nonzero;fill:rgb(98.823529%,99.607843%,99.215686%);fill-opacity:1;" d="M 37.558594 52.238281 C 38.070312 51.4375 39.359375 51.328125 40.007812 52.019531 C 40.207031 52.210938 40.296875 52.476562 40.410156 52.722656 C 40.40625 52.972656 40.40625 53.222656 40.402344 53.476562 C 40.074219 53.488281 39.75 53.457031 39.425781 53.425781 C 39.421875 53.257812 39.417969 53.085938 39.417969 52.921875 C 39.207031 52.6875 38.875 52.550781 38.574219 52.691406 C 38.304688 52.882812 38.351562 53.246094 38.289062 53.53125 C 38.242188 54 38.128906 54.460938 38.132812 54.9375 C 38.175781 54.996094 38.257812 55.117188 38.296875 55.179688 C 38.546875 55.324219 38.828125 55.292969 39.082031 55.171875 C 39.152344 55.003906 39.222656 54.835938 39.289062 54.671875 C 39.613281 54.707031 39.933594 54.757812 40.253906 54.792969 C 40.253906 55.273438 40.09375 55.820312 39.640625 56.066406 C 38.933594 56.449219 37.917969 56.390625 37.40625 55.707031 C 36.996094 55.253906 37.097656 54.601562 37.199219 54.054688 C 37.332031 53.449219 37.324219 52.8125 37.558594 52.238281 Z M 37.558594 52.238281 "/>
<path style=" stroke:none;fill-rule:nonzero;fill:rgb(99.215686%,99.607843%,98.823529%);fill-opacity:1;" d="M 41.167969 51.789062 C 41.785156 51.699219 42.40625 51.65625 43.027344 51.65625 C 43.34375 51.644531 43.632812 51.796875 43.90625 51.941406 C 44.351562 52.496094 44.4375 53.308594 44.097656 53.933594 C 43.988281 54.152344 43.789062 54.308594 43.671875 54.523438 C 43.933594 55.136719 44.328125 55.679688 44.632812 56.277344 C 44.28125 56.28125 43.929688 56.3125 43.578125 56.335938 C 43.1875 55.746094 42.875 55.101562 42.4375 54.542969 C 42.445312 55.171875 42.550781 55.796875 42.566406 56.425781 C 42.234375 56.453125 41.902344 56.5 41.570312 56.511719 C 41.527344 56.175781 41.515625 55.835938 41.476562 55.5 C 41.410156 54.691406 41.335938 53.882812 41.265625 53.074219 C 41.214844 52.644531 41.195312 52.214844 41.167969 51.789062 Z M 41.167969 51.789062 "/>
<path style=" stroke:none;fill-rule:nonzero;fill:rgb(0.392157%,0.784314%,1.568627%);fill-opacity:1;" d="M 42.285156 52.648438 C 42.625 52.542969 42.972656 52.605469 43.265625 52.800781 C 43.304688 52.933594 43.347656 53.066406 43.390625 53.199219 C 43.304688 53.359375 43.242188 53.546875 43.074219 53.636719 C 42.851562 53.703125 42.621094 53.742188 42.390625 53.777344 C 42.316406 53.40625 42.289062 53.027344 42.285156 52.648438 Z M 42.285156 52.648438 "/>
</g>
</svg>
